<svg xmlns="http://www.w3.org/2000/svg" xmlns:xlink="http://www.w3.org/1999/xlink" width="500" zoomAndPan="magnify" viewBox="0 0 375 374.999991" height="500" preserveAspectRatio="xMidYMid meet" version="1.0"><defs><clipPath id="7e4fa84f65"><path d="M 55 54.242188 L 320 54.242188 L 320 319 L 55 319 Z M 55 54.242188 " clip-rule="nonzero"/></clipPath></defs><rect x="-37.5" width="450" fill="#ffffff" y="-37.499999" height="449.999989" fill-opacity="1"/><rect x="-37.5" width="450" fill="#ffffff" y="-37.499999" height="449.999989" fill-opacity="1"/><rect x="-37.5" width="450" fill="#d6e9f4" y="-37.499999" height="449.999989" fill-opacity="1"/><g clip-path="url(#7e4fa84f65)"><path fill="#23526a" d="M 187.171875 53.941406 C 186.449219 53.949219 185.734375 53.996094 185.015625 54.078125 C 184.300781 54.160156 183.589844 54.273438 182.882812 54.425781 C 182.179688 54.574219 181.484375 54.761719 180.796875 54.980469 C 180.109375 55.199219 179.433594 55.453125 178.773438 55.738281 C 178.109375 56.023438 177.464844 56.339844 176.832031 56.6875 C 176.203125 57.039062 175.589844 57.417969 174.996094 57.828125 C 174.402344 58.234375 173.832031 58.671875 173.28125 59.136719 C 172.730469 59.601562 172.203125 60.09375 171.699219 60.609375 C 171.195312 61.128906 170.722656 61.667969 170.273438 62.230469 C 169.824219 62.796875 169.402344 63.378906 169.007812 63.984375 C 168.617188 64.589844 168.253906 65.214844 167.925781 65.855469 C 167.59375 66.496094 167.296875 67.148438 167.027344 67.820312 C 166.761719 68.488281 166.527344 69.171875 166.328125 69.863281 C 166.128906 70.554688 165.964844 71.257812 165.832031 71.964844 C 165.703125 72.675781 165.605469 73.390625 165.546875 74.105469 C 165.484375 74.824219 165.460938 75.546875 165.46875 76.265625 L 165.46875 164.367188 L 77.367188 164.367188 C 76.640625 164.359375 75.914062 164.382812 75.1875 164.445312 C 74.460938 164.507812 73.742188 164.605469 73.027344 164.738281 C 72.3125 164.871094 71.601562 165.039062 70.90625 165.242188 C 70.207031 165.445312 69.519531 165.683594 68.84375 165.953125 C 68.167969 166.226562 67.507812 166.53125 66.863281 166.867188 C 66.214844 167.203125 65.589844 167.570312 64.980469 167.96875 C 64.371094 168.371094 63.785156 168.796875 63.21875 169.253906 C 62.652344 169.710938 62.109375 170.195312 61.589844 170.707031 C 61.074219 171.21875 60.582031 171.753906 60.117188 172.3125 C 59.648438 172.875 59.214844 173.457031 58.804688 174.058594 C 58.398438 174.660156 58.023438 175.285156 57.675781 175.925781 C 57.328125 176.5625 57.015625 177.21875 56.734375 177.890625 C 56.453125 178.5625 56.207031 179.246094 55.992188 179.941406 C 55.78125 180.640625 55.601562 181.34375 55.460938 182.058594 C 55.316406 182.773438 55.207031 183.492188 55.136719 184.214844 C 55.066406 184.9375 55.027344 185.664062 55.027344 186.394531 C 55.027344 187.121094 55.066406 187.847656 55.136719 188.570312 C 55.207031 189.296875 55.316406 190.015625 55.460938 190.730469 C 55.601562 191.441406 55.78125 192.148438 55.992188 192.84375 C 56.207031 193.539062 56.453125 194.222656 56.734375 194.894531 C 57.015625 195.566406 57.328125 196.222656 57.675781 196.863281 C 58.023438 197.503906 58.398438 198.125 58.804688 198.726562 C 59.214844 199.332031 59.648438 199.914062 60.117188 200.472656 C 60.582031 201.03125 61.074219 201.566406 61.589844 202.078125 C 62.109375 202.589844 62.652344 203.074219 63.21875 203.53125 C 63.785156 203.988281 64.371094 204.417969 64.980469 204.816406 C 65.589844 205.214844 66.214844 205.582031 66.863281 205.921875 C 67.507812 206.257812 68.167969 206.5625 68.84375 206.832031 C 69.519531 207.105469 70.207031 207.339844 70.90625 207.542969 C 71.601562 207.746094 72.3125 207.917969 73.027344 208.050781 C 73.742188 208.183594 74.460938 208.28125 75.1875 208.339844 C 75.914062 208.402344 76.640625 208.429688 77.367188 208.417969 L 165.46875 208.417969 L 165.46875 296.519531 C 165.457031 297.25 165.484375 297.976562 165.546875 298.699219 C 165.609375 299.425781 165.707031 300.144531 165.839844 300.863281 C 165.972656 301.578125 166.140625 302.285156 166.34375 302.984375 C 166.546875 303.683594 166.785156 304.371094 167.054688 305.046875 C 167.328125 305.71875 167.632812 306.382812 167.96875 307.027344 C 168.304688 307.671875 168.671875 308.296875 169.070312 308.90625 C 169.472656 309.515625 169.898438 310.105469 170.355469 310.671875 C 170.8125 311.238281 171.296875 311.777344 171.808594 312.296875 C 172.320312 312.816406 172.855469 313.308594 173.414062 313.773438 C 173.976562 314.238281 174.558594 314.675781 175.160156 315.082031 C 175.761719 315.488281 176.382812 315.867188 177.023438 316.210938 C 177.664062 316.558594 178.320312 316.871094 178.992188 317.152344 C 179.664062 317.433594 180.347656 317.679688 181.042969 317.894531 C 181.742188 318.105469 182.445312 318.285156 183.160156 318.429688 C 183.871094 318.570312 184.59375 318.679688 185.316406 318.75 C 186.039062 318.824219 186.765625 318.859375 187.496094 318.859375 C 188.222656 318.859375 188.949219 318.824219 189.671875 318.75 C 190.398438 318.679688 191.117188 318.570312 191.832031 318.429688 C 192.542969 318.285156 193.25 318.105469 193.945312 317.894531 C 194.640625 317.679688 195.324219 317.433594 195.996094 317.152344 C 196.667969 316.871094 197.324219 316.558594 197.964844 316.210938 C 198.605469 315.867188 199.226562 315.488281 199.828125 315.082031 C 200.433594 314.675781 201.015625 314.238281 201.574219 313.773438 C 202.132812 313.308594 202.667969 312.816406 203.179688 312.296875 C 203.691406 311.777344 204.175781 311.238281 204.632812 310.671875 C 205.089844 310.105469 205.519531 309.515625 205.917969 308.90625 C 206.316406 308.296875 206.683594 307.671875 207.019531 307.027344 C 207.359375 306.382812 207.664062 305.71875 207.933594 305.046875 C 208.207031 304.371094 208.441406 303.683594 208.644531 302.984375 C 208.847656 302.285156 209.015625 301.578125 209.152344 300.863281 C 209.285156 300.144531 209.382812 299.425781 209.441406 298.699219 C 209.503906 297.976562 209.53125 297.25 209.519531 296.519531 L 209.519531 208.417969 L 297.621094 208.417969 C 298.351562 208.429688 299.078125 208.402344 299.800781 208.339844 C 300.527344 208.28125 301.246094 208.183594 301.964844 208.050781 C 302.679688 207.917969 303.386719 207.746094 304.085938 207.542969 C 304.785156 207.339844 305.472656 207.105469 306.148438 206.832031 C 306.820312 206.5625 307.480469 206.257812 308.128906 205.921875 C 308.773438 205.582031 309.398438 205.214844 310.007812 204.816406 C 310.617188 204.417969 311.207031 203.988281 311.773438 203.53125 C 312.335938 203.074219 312.878906 202.589844 313.398438 202.078125 C 313.917969 201.566406 314.410156 201.03125 314.875 200.472656 C 315.339844 199.914062 315.777344 199.332031 316.183594 198.726562 C 316.589844 198.125 316.96875 197.503906 317.3125 196.863281 C 317.660156 196.222656 317.972656 195.566406 318.253906 194.894531 C 318.535156 194.222656 318.78125 193.539062 318.996094 192.84375 C 319.207031 192.148438 319.386719 191.441406 319.53125 190.730469 C 319.671875 190.015625 319.78125 189.296875 319.851562 188.570312 C 319.925781 187.847656 319.960938 187.121094 319.960938 186.394531 C 319.960938 185.664062 319.925781 184.9375 319.851562 184.214844 C 319.78125 183.492188 319.671875 182.773438 319.53125 182.058594 C 319.386719 181.34375 319.207031 180.640625 318.996094 179.941406 C 318.78125 179.246094 318.535156 178.5625 318.253906 177.890625 C 317.972656 177.21875 317.660156 176.5625 317.3125 175.925781 C 316.96875 175.285156 316.589844 174.660156 316.183594 174.058594 C 315.777344 173.457031 315.339844 172.875 314.875 172.3125 C 314.410156 171.753906 313.917969 171.21875 313.398438 170.707031 C 312.878906 170.195312 312.335938 169.710938 311.773438 169.253906 C 311.207031 168.796875 310.617188 168.371094 310.007812 167.96875 C 309.398438 167.570312 308.773438 167.203125 308.128906 166.867188 C 307.480469 166.53125 306.820312 166.226562 306.148438 165.953125 C 305.472656 165.683594 304.785156 165.445312 304.085938 165.242188 C 303.386719 165.039062 302.679688 164.871094 301.964844 164.738281 C 301.246094 164.605469 300.527344 164.507812 299.800781 164.445312 C 299.078125 164.382812 298.351562 164.359375 297.621094 164.367188 L 209.519531 164.367188 L 209.519531 76.265625 C 209.53125 75.53125 209.503906 74.796875 209.441406 74.066406 C 209.375 73.335938 209.277344 72.609375 209.140625 71.886719 C 209.003906 71.164062 208.832031 70.453125 208.625 69.746094 C 208.417969 69.042969 208.175781 68.351562 207.902344 67.667969 C 207.625 66.988281 207.3125 66.324219 206.972656 65.675781 C 206.628906 65.027344 206.253906 64.394531 205.847656 63.78125 C 205.441406 63.171875 205.003906 62.582031 204.539062 62.011719 C 204.074219 61.445312 203.582031 60.902344 203.0625 60.382812 C 202.542969 59.863281 202 59.371094 201.429688 58.90625 C 200.863281 58.441406 200.269531 58.007812 199.660156 57.601562 C 199.046875 57.195312 198.414062 56.820312 197.765625 56.476562 C 197.117188 56.136719 196.449219 55.828125 195.769531 55.550781 C 195.089844 55.273438 194.398438 55.035156 193.691406 54.828125 C 192.988281 54.621094 192.273438 54.449219 191.550781 54.3125 C 190.828125 54.179688 190.101562 54.078125 189.371094 54.015625 C 188.640625 53.953125 187.90625 53.929688 187.171875 53.941406 Z M 187.171875 53.941406 " fill-opacity="1" fill-rule="nonzero"/></g></svg>